<mxfile host="app.diagrams.net" modified="2021-01-07T04:10:11.423Z" agent="5.0 (Macintosh; Intel Mac OS X 10_15_7) AppleWebKit/537.36 (KHTML, like Gecko) Chrome/87.0.4280.88 Safari/537.36" etag="A6MywgiS0PGfFx8uI8BG" version="14.1.8" type="github">
  <diagram name="Page-1" id="e3a06f82-3646-2815-327d-82caf3d4e204">
    <mxGraphModel dx="1234" dy="1180" grid="1" gridSize="10" guides="1" tooltips="1" connect="1" arrows="1" fold="1" page="1" pageScale="1.5" pageWidth="1169" pageHeight="826" background="none" math="0" shadow="0">
      <root>
        <mxCell id="0" style=";html=1;" />
        <mxCell id="1" style=";html=1;" parent="0" />
        <mxCell id="6a7d8f32e03d9370-61" value="&lt;font style=&quot;font-size: 16px&quot;&gt;Data source&lt;/font&gt;" style="whiteSpace=wrap;html=1;fillColor=#f8cecc;fontSize=14;strokeColor=none;verticalAlign=top;" parent="1" vertex="1">
          <mxGeometry x="1090" y="294" width="439" height="651" as="geometry" />
        </mxCell>
        <mxCell id="6a7d8f32e03d9370-59" value="&lt;font style=&quot;font-size: 17px&quot;&gt;回测环境&lt;/font&gt;" style="whiteSpace=wrap;html=1;fillColor=#EDEDED;fontSize=14;strokeColor=none;verticalAlign=top;" parent="1" vertex="1">
          <mxGeometry x="530" y="98" width="410" height="1010" as="geometry" />
        </mxCell>
        <mxCell id="6a7d8f32e03d9370-58" value="Residential Private Networks" style="whiteSpace=wrap;html=1;fillColor=#dae8fc;fontSize=14;strokeColor=none;verticalAlign=top;" parent="1" vertex="1">
          <mxGeometry x="177" y="863" width="310" height="318" as="geometry" />
        </mxCell>
        <mxCell id="6a7d8f32e03d9370-57" value="&lt;font style=&quot;font-size: 16px&quot;&gt;公司数据中台&lt;/font&gt;" style="whiteSpace=wrap;html=1;fillColor=#FFD470;gradientColor=none;fontSize=14;strokeColor=none;verticalAlign=top;" parent="1" vertex="1">
          <mxGeometry x="179" y="98" width="308" height="680" as="geometry" />
        </mxCell>
        <mxCell id="6a7d8f32e03d9370-36" style="edgeStyle=none;rounded=0;html=1;startSize=10;endSize=10;jettySize=auto;orthogonalLoop=1;fontSize=14;endArrow=none;endFill=0;strokeWidth=2;" parent="1" source="6a7d8f32e03d9370-1" edge="1">
          <mxGeometry relative="1" as="geometry">
            <mxPoint x="636.9999999999998" y="1014.1923076923076" as="targetPoint" />
          </mxGeometry>
        </mxCell>
        <mxCell id="6a7d8f32e03d9370-1" value="Client" style="verticalLabelPosition=bottom;aspect=fixed;html=1;verticalAlign=top;strokeColor=none;shape=mxgraph.citrix.laptop_2;fillColor=#66B2FF;gradientColor=#0066CC;fontSize=14;" parent="1" vertex="1">
          <mxGeometry x="350.4999999999999" y="927" width="116" height="86.5" as="geometry" />
        </mxCell>
        <mxCell id="6a7d8f32e03d9370-5" value="Client" style="verticalLabelPosition=bottom;aspect=fixed;html=1;verticalAlign=top;strokeColor=none;shape=mxgraph.citrix.desktop;fillColor=#66B2FF;gradientColor=#0066CC;fontSize=14;" parent="1" vertex="1">
          <mxGeometry x="362.00000000000006" y="156.00000000000006" width="89" height="98" as="geometry" />
        </mxCell>
        <mxCell id="6a7d8f32e03d9370-37" style="edgeStyle=none;rounded=0;html=1;startSize=10;endSize=10;jettySize=auto;orthogonalLoop=1;fontSize=14;endArrow=none;endFill=0;strokeWidth=2;" parent="1" source="6a7d8f32e03d9370-6" edge="1">
          <mxGeometry relative="1" as="geometry">
            <mxPoint x="636.9999999999998" y="1032.0515947467165" as="targetPoint" />
          </mxGeometry>
        </mxCell>
        <mxCell id="6a7d8f32e03d9370-6" value="Client" style="verticalLabelPosition=bottom;aspect=fixed;html=1;verticalAlign=top;strokeColor=none;shape=mxgraph.citrix.pda;fillColor=#66B2FF;gradientColor=#0066CC;fontSize=14;" parent="1" vertex="1">
          <mxGeometry x="393.50000000000006" y="1065" width="30" height="61" as="geometry" />
        </mxCell>
        <mxCell id="6a7d8f32e03d9370-43" style="edgeStyle=none;rounded=0;html=1;startSize=10;endSize=10;jettySize=auto;orthogonalLoop=1;fontSize=14;endArrow=none;endFill=0;strokeWidth=2;startArrow=blockThin;startFill=1;" parent="1" source="A9i1_2r06wziE7NqVmH8-29" edge="1">
          <mxGeometry relative="1" as="geometry">
            <mxPoint x="720.6000000000001" y="460" as="sourcePoint" />
            <mxPoint x="720" y="280" as="targetPoint" />
          </mxGeometry>
        </mxCell>
        <mxCell id="6a7d8f32e03d9370-56" style="edgeStyle=none;rounded=0;html=1;jettySize=auto;orthogonalLoop=1;fontSize=14;endArrow=none;endFill=0;strokeWidth=2;exitX=0.927;exitY=0.285;exitDx=0;exitDy=0;exitPerimeter=0;startArrow=blockThin;startFill=1;endSize=10;startSize=10;" parent="1" source="6a7d8f32e03d9370-13" target="A9i1_2r06wziE7NqVmH8-4" edge="1">
          <mxGeometry relative="1" as="geometry">
            <mxPoint x="1240" y="800" as="targetPoint" />
          </mxGeometry>
        </mxCell>
        <mxCell id="6a7d8f32e03d9370-13" value="" style="verticalLabelPosition=bottom;aspect=fixed;html=1;verticalAlign=top;strokeColor=none;shape=mxgraph.citrix.router;fillColor=#66B2FF;gradientColor=#0066CC;fontSize=14;" parent="1" vertex="1">
          <mxGeometry x="973" y="587" width="55" height="36.5" as="geometry" />
        </mxCell>
        <mxCell id="6a7d8f32e03d9370-44" style="edgeStyle=none;rounded=0;html=1;startSize=10;endSize=10;jettySize=auto;orthogonalLoop=1;fontSize=14;endArrow=none;endFill=0;strokeWidth=2;startArrow=blockThin;startFill=1;" parent="1" source="6a7d8f32e03d9370-17" target="6a7d8f32e03d9370-13" edge="1">
          <mxGeometry relative="1" as="geometry" />
        </mxCell>
        <mxCell id="A9i1_2r06wziE7NqVmH8-27" value="FTP" style="edgeLabel;html=1;align=center;verticalAlign=middle;resizable=0;points=[];fontSize=14;" vertex="1" connectable="0" parent="6a7d8f32e03d9370-44">
          <mxGeometry x="0.0849" y="-2" relative="1" as="geometry">
            <mxPoint x="40.22" y="85.31" as="offset" />
          </mxGeometry>
        </mxCell>
        <mxCell id="6a7d8f32e03d9370-17" value="" style="verticalLabelPosition=bottom;aspect=fixed;html=1;verticalAlign=top;strokeColor=none;shape=mxgraph.citrix.firewall;fillColor=#66B2FF;gradientColor=#0066CC;fontSize=14;" parent="1" vertex="1">
          <mxGeometry x="810" y="158.5" width="75" height="93" as="geometry" />
        </mxCell>
        <mxCell id="6a7d8f32e03d9370-23" value="" style="verticalLabelPosition=bottom;aspect=fixed;html=1;verticalAlign=top;strokeColor=none;shape=mxgraph.citrix.home_office;fillColor=#66B2FF;gradientColor=#0066CC;fontSize=14;" parent="1" vertex="1">
          <mxGeometry x="207" y="955" width="80" height="55.5" as="geometry" />
        </mxCell>
        <mxCell id="6a7d8f32e03d9370-24" value="" style="verticalLabelPosition=bottom;aspect=fixed;html=1;verticalAlign=top;strokeColor=none;shape=mxgraph.citrix.hq_enterprise;fillColor=#66B2FF;gradientColor=#0066CC;fontSize=14;" parent="1" vertex="1">
          <mxGeometry x="227" y="252" width="92" height="88" as="geometry" />
        </mxCell>
        <mxCell id="6a7d8f32e03d9370-62" value="Citrix Network Architecture" style="text;strokeColor=none;fillColor=none;html=1;fontSize=24;fontStyle=1;verticalAlign=middle;align=center;" parent="1" vertex="1">
          <mxGeometry x="499" y="30" width="861" height="40" as="geometry" />
        </mxCell>
        <mxCell id="A9i1_2r06wziE7NqVmH8-2" style="edgeStyle=none;rounded=0;html=1;startSize=10;endSize=10;jettySize=auto;orthogonalLoop=1;fontSize=14;endArrow=blockThin;endFill=1;strokeWidth=2;" edge="1" parent="1" source="A9i1_2r06wziE7NqVmH8-13">
          <mxGeometry relative="1" as="geometry">
            <mxPoint x="1090" y="800" as="sourcePoint" />
            <mxPoint x="1024" y="620" as="targetPoint" />
          </mxGeometry>
        </mxCell>
        <mxCell id="A9i1_2r06wziE7NqVmH8-3" value="CSV" style="verticalLabelPosition=bottom;html=1;verticalAlign=top;strokeWidth=1;align=center;outlineConnect=0;dashed=0;outlineConnect=0;shape=mxgraph.aws3d.file;aspect=fixed;strokeColor=#292929;" vertex="1" parent="1">
          <mxGeometry x="1350" y="380" width="30.8" height="70.6" as="geometry" />
        </mxCell>
        <mxCell id="A9i1_2r06wziE7NqVmH8-4" value="TC" style="verticalLabelPosition=bottom;html=1;verticalAlign=top;strokeWidth=1;align=center;outlineConnect=0;dashed=0;outlineConnect=0;shape=mxgraph.aws3d.dataServer;strokeColor=#5E5E5E;aspect=fixed;" vertex="1" parent="1">
          <mxGeometry x="1160" y="440" width="106.75" height="92" as="geometry" />
        </mxCell>
        <mxCell id="A9i1_2r06wziE7NqVmH8-5" style="edgeStyle=none;rounded=0;html=1;startSize=10;endSize=10;jettySize=auto;orthogonalLoop=1;fontSize=14;endArrow=none;endFill=0;strokeWidth=2;" edge="1" parent="1" source="A9i1_2r06wziE7NqVmH8-4" target="A9i1_2r06wziE7NqVmH8-3">
          <mxGeometry relative="1" as="geometry">
            <mxPoint x="1260" y="454" as="sourcePoint" />
            <mxPoint x="1110" y="618.1351880877742" as="targetPoint" />
          </mxGeometry>
        </mxCell>
        <mxCell id="A9i1_2r06wziE7NqVmH8-7" style="edgeStyle=none;rounded=0;html=1;startSize=10;endSize=10;jettySize=auto;orthogonalLoop=1;fontSize=14;endArrow=none;endFill=0;strokeWidth=2;startArrow=blockThin;startFill=1;" edge="1" parent="1" source="6a7d8f32e03d9370-13" target="A9i1_2r06wziE7NqVmH8-8">
          <mxGeometry relative="1" as="geometry">
            <mxPoint x="1038" y="597.0027891955374" as="sourcePoint" />
            <mxPoint x="1060" y="610" as="targetPoint" />
          </mxGeometry>
        </mxCell>
        <mxCell id="A9i1_2r06wziE7NqVmH8-8" value="SP" style="verticalLabelPosition=bottom;html=1;verticalAlign=top;strokeWidth=1;align=center;outlineConnect=0;dashed=0;outlineConnect=0;shape=mxgraph.aws3d.dataServer;strokeColor=#5E5E5E;aspect=fixed;" vertex="1" parent="1">
          <mxGeometry x="1160" y="582" width="106.75" height="92" as="geometry" />
        </mxCell>
        <mxCell id="A9i1_2r06wziE7NqVmH8-9" value="CSV" style="verticalLabelPosition=bottom;html=1;verticalAlign=top;strokeWidth=1;align=center;outlineConnect=0;dashed=0;outlineConnect=0;shape=mxgraph.aws3d.file;aspect=fixed;strokeColor=#292929;" vertex="1" parent="1">
          <mxGeometry x="1350" y="597.7" width="30.8" height="70.6" as="geometry" />
        </mxCell>
        <mxCell id="A9i1_2r06wziE7NqVmH8-10" style="edgeStyle=none;rounded=0;html=1;startSize=10;endSize=10;jettySize=auto;orthogonalLoop=1;fontSize=14;endArrow=none;endFill=0;strokeWidth=2;" edge="1" parent="1" source="A9i1_2r06wziE7NqVmH8-8" target="A9i1_2r06wziE7NqVmH8-9">
          <mxGeometry relative="1" as="geometry">
            <mxPoint x="1270" y="464" as="sourcePoint" />
            <mxPoint x="1360" y="413.8766603415561" as="targetPoint" />
          </mxGeometry>
        </mxCell>
        <mxCell id="A9i1_2r06wziE7NqVmH8-11" value="API" style="pointerEvents=1;shadow=0;dashed=0;html=1;strokeColor=none;fillColor=#505050;labelPosition=center;verticalLabelPosition=bottom;verticalAlign=top;outlineConnect=0;align=center;shape=mxgraph.office.concepts.globe_internet;" vertex="1" parent="1">
          <mxGeometry x="1340.9" y="490" width="49" height="49" as="geometry" />
        </mxCell>
        <mxCell id="A9i1_2r06wziE7NqVmH8-12" style="edgeStyle=none;rounded=0;html=1;startSize=10;endSize=10;jettySize=auto;orthogonalLoop=1;fontSize=14;endArrow=none;endFill=0;strokeWidth=2;" edge="1" parent="1" source="A9i1_2r06wziE7NqVmH8-4" target="A9i1_2r06wziE7NqVmH8-11">
          <mxGeometry relative="1" as="geometry">
            <mxPoint x="1270" y="464" as="sourcePoint" />
            <mxPoint x="1360" y="413.8766603415561" as="targetPoint" />
          </mxGeometry>
        </mxCell>
        <mxCell id="A9i1_2r06wziE7NqVmH8-13" value="JoinQuant" style="verticalLabelPosition=bottom;html=1;verticalAlign=top;strokeWidth=1;align=center;outlineConnect=0;dashed=0;outlineConnect=0;shape=mxgraph.aws3d.dataServer;strokeColor=#5E5E5E;aspect=fixed;" vertex="1" parent="1">
          <mxGeometry x="1160" y="721" width="106.75" height="92" as="geometry" />
        </mxCell>
        <mxCell id="A9i1_2r06wziE7NqVmH8-17" value="API" style="pointerEvents=1;shadow=0;dashed=0;html=1;strokeColor=none;fillColor=#505050;labelPosition=center;verticalLabelPosition=bottom;verticalAlign=top;outlineConnect=0;align=center;shape=mxgraph.office.concepts.globe_internet;" vertex="1" parent="1">
          <mxGeometry x="1340.9" y="742.5" width="49" height="49" as="geometry" />
        </mxCell>
        <mxCell id="A9i1_2r06wziE7NqVmH8-18" style="edgeStyle=none;rounded=0;html=1;startSize=10;endSize=10;jettySize=auto;orthogonalLoop=1;fontSize=14;endArrow=none;endFill=0;strokeWidth=2;" edge="1" parent="1" source="A9i1_2r06wziE7NqVmH8-13" target="A9i1_2r06wziE7NqVmH8-17">
          <mxGeometry relative="1" as="geometry">
            <mxPoint x="1266.75" y="765.6354678506822" as="sourcePoint" />
            <mxPoint x="1330" y="768" as="targetPoint" />
          </mxGeometry>
        </mxCell>
        <mxCell id="A9i1_2r06wziE7NqVmH8-20" value="CSV" style="verticalLabelPosition=bottom;html=1;verticalAlign=top;strokeWidth=1;align=center;outlineConnect=0;dashed=0;outlineConnect=0;shape=mxgraph.aws3d.file;aspect=fixed;strokeColor=#292929;" vertex="1" parent="1">
          <mxGeometry x="705.2" y="169.69999999999996" width="30.8" height="70.6" as="geometry" />
        </mxCell>
        <mxCell id="A9i1_2r06wziE7NqVmH8-21" style="edgeStyle=none;rounded=0;html=1;startSize=10;endSize=10;jettySize=auto;orthogonalLoop=1;fontSize=14;endArrow=none;endFill=0;strokeWidth=2;startArrow=blockThin;startFill=1;" edge="1" parent="1" source="A9i1_2r06wziE7NqVmH8-20" target="6a7d8f32e03d9370-17">
          <mxGeometry relative="1" as="geometry">
            <mxPoint x="705.6364503816792" y="430" as="sourcePoint" />
            <mxPoint x="784.93606870229" y="259" as="targetPoint" />
          </mxGeometry>
        </mxCell>
        <mxCell id="A9i1_2r06wziE7NqVmH8-24" value="" style="verticalLabelPosition=bottom;aspect=fixed;html=1;verticalAlign=top;strokeColor=none;shape=mxgraph.citrix.firewall;fillColor=#66B2FF;gradientColor=#0066CC;fontSize=14;" vertex="1" parent="1">
          <mxGeometry x="802" y="558.75" width="75" height="93" as="geometry" />
        </mxCell>
        <mxCell id="A9i1_2r06wziE7NqVmH8-25" style="edgeStyle=none;rounded=0;html=1;startSize=10;endSize=10;jettySize=auto;orthogonalLoop=1;fontSize=14;endArrow=none;endFill=0;strokeWidth=2;startArrow=blockThin;startFill=1;entryX=-0.049;entryY=0.552;entryDx=0;entryDy=0;entryPerimeter=0;" edge="1" parent="1" source="A9i1_2r06wziE7NqVmH8-24" target="6a7d8f32e03d9370-13">
          <mxGeometry relative="1" as="geometry">
            <mxPoint x="746.0000000000002" y="215.05241660993875" as="sourcePoint" />
            <mxPoint x="940" y="603" as="targetPoint" />
          </mxGeometry>
        </mxCell>
        <mxCell id="A9i1_2r06wziE7NqVmH8-28" value="HTTP" style="edgeLabel;html=1;align=center;verticalAlign=middle;resizable=0;points=[];fontSize=14;" vertex="1" connectable="0" parent="A9i1_2r06wziE7NqVmH8-25">
          <mxGeometry x="0.0505" y="-1" relative="1" as="geometry">
            <mxPoint as="offset" />
          </mxGeometry>
        </mxCell>
        <mxCell id="A9i1_2r06wziE7NqVmH8-26" style="edgeStyle=none;rounded=0;html=1;startSize=10;endSize=10;jettySize=auto;orthogonalLoop=1;fontSize=14;endArrow=none;endFill=0;strokeWidth=2;startArrow=blockThin;startFill=1;entryX=-0.034;entryY=0.529;entryDx=0;entryDy=0;entryPerimeter=0;" edge="1" parent="1" source="A9i1_2r06wziE7NqVmH8-29" target="A9i1_2r06wziE7NqVmH8-24">
          <mxGeometry relative="1" as="geometry">
            <mxPoint x="746.0000000000002" y="215.05241660993875" as="sourcePoint" />
            <mxPoint x="840" y="215.3723621511233" as="targetPoint" />
          </mxGeometry>
        </mxCell>
        <mxCell id="A9i1_2r06wziE7NqVmH8-29" value="机器交易数据中台" style="pointerEvents=1;shadow=0;dashed=0;html=1;strokeColor=none;fillColor=#505050;labelPosition=center;verticalLabelPosition=bottom;verticalAlign=top;outlineConnect=0;align=center;shape=mxgraph.office.concepts.service_application;fontSize=14;" vertex="1" parent="1">
          <mxGeometry x="691.1" y="581.25" width="59" height="48" as="geometry" />
        </mxCell>
        <mxCell id="A9i1_2r06wziE7NqVmH8-30" style="edgeStyle=none;rounded=0;html=1;startSize=10;endSize=10;jettySize=auto;orthogonalLoop=1;fontSize=14;endArrow=none;endFill=0;strokeWidth=2;startArrow=blockThin;startFill=1;" edge="1" parent="1" source="A9i1_2r06wziE7NqVmH8-32">
          <mxGeometry relative="1" as="geometry">
            <mxPoint x="629.9649122807016" y="778" as="sourcePoint" />
            <mxPoint x="690" y="660" as="targetPoint" />
          </mxGeometry>
        </mxCell>
        <mxCell id="A9i1_2r06wziE7NqVmH8-31" value="因子" style="edgeLabel;html=1;align=center;verticalAlign=middle;resizable=0;points=[];fontSize=14;" vertex="1" connectable="0" parent="A9i1_2r06wziE7NqVmH8-30">
          <mxGeometry x="0.1133" y="-1" relative="1" as="geometry">
            <mxPoint as="offset" />
          </mxGeometry>
        </mxCell>
        <mxCell id="A9i1_2r06wziE7NqVmH8-32" value="SQL" style="verticalLabelPosition=bottom;aspect=fixed;html=1;verticalAlign=top;strokeColor=none;align=center;outlineConnect=0;shape=mxgraph.citrix.database;fontSize=14;" vertex="1" parent="1">
          <mxGeometry x="610" y="780" width="42.5" height="50" as="geometry" />
        </mxCell>
        <mxCell id="A9i1_2r06wziE7NqVmH8-33" value="MongoDb" style="verticalLabelPosition=bottom;aspect=fixed;html=1;verticalAlign=top;strokeColor=none;align=center;outlineConnect=0;shape=mxgraph.citrix.database;fontSize=14;" vertex="1" parent="1">
          <mxGeometry x="759.5" y="780" width="42.5" height="50" as="geometry" />
        </mxCell>
        <mxCell id="A9i1_2r06wziE7NqVmH8-34" style="edgeStyle=none;rounded=0;html=1;startSize=10;endSize=10;jettySize=auto;orthogonalLoop=1;fontSize=14;endArrow=none;endFill=0;strokeWidth=2;startArrow=blockThin;startFill=1;" edge="1" parent="1" source="A9i1_2r06wziE7NqVmH8-33">
          <mxGeometry relative="1" as="geometry">
            <mxPoint x="651.3793103448277" y="790.0000000000002" as="sourcePoint" />
            <mxPoint x="740" y="660" as="targetPoint" />
          </mxGeometry>
        </mxCell>
        <mxCell id="A9i1_2r06wziE7NqVmH8-35" value="行情" style="edgeLabel;html=1;align=center;verticalAlign=middle;resizable=0;points=[];fontSize=14;" vertex="1" connectable="0" parent="A9i1_2r06wziE7NqVmH8-34">
          <mxGeometry x="0.1133" y="-1" relative="1" as="geometry">
            <mxPoint as="offset" />
          </mxGeometry>
        </mxCell>
      </root>
    </mxGraphModel>
  </diagram>
</mxfile>
